<svg width="198" height="198" viewBox="0 0 198 198" fill="none" xmlns="http://www.w3.org/2000/svg">
<g clip-path="url(#clip0_536_1491)">
<path fill-rule="evenodd" clip-rule="evenodd" d="M10.1089 145.855C8.26037 145.855 6.53561 144.865 5.61522 143.268L0.688422 134.737C6.29006e-05 133.542 -0.181695 132.146 0.174086 130.804C0.533735 129.466 1.39225 128.348 2.58721 127.66L66.1599 90.9524C67.2698 90.3143 68.689 90.6933 69.331 91.8032L77.1156 105.288C77.425 105.822 77.5101 106.456 77.3477 107.051C77.1891 107.643 76.8024 108.15 76.2687 108.459L12.6922 145.163C11.9071 145.615 11.0138 145.855 10.1089 145.855V145.855Z" fill="#FC974D"/>
<path fill-rule="evenodd" clip-rule="evenodd" d="M77.572 113.034C76.7715 113.034 75.9904 112.62 75.5611 111.874L62.8497 89.8579C62.2077 88.7481 62.5906 87.3288 63.6966 86.6869L74.8457 80.2519C75.9556 79.6138 77.3748 79.9928 78.0129 81.1026L90.7243 103.119C91.0337 103.652 91.1188 104.286 90.9564 104.882C90.7978 105.474 90.4111 105.98 89.8774 106.29L78.7283 112.725C78.3648 112.933 77.9665 113.034 77.572 113.034V113.034Z" fill="#FFDC67"/>
<path fill-rule="evenodd" clip-rule="evenodd" d="M90.6237 109.902C90.4226 109.902 90.2215 109.878 90.0243 109.824C89.4288 109.666 88.9222 109.275 88.6128 108.741L72.0883 80.1204C71.4463 79.0105 71.8292 77.5912 72.9391 76.9493L84.0843 70.5143C84.618 70.2049 85.2522 70.1237 85.8439 70.2822C86.4394 70.4408 86.946 70.8314 87.2554 71.3651L103.78 99.9861C104.418 101.096 104.039 102.515 102.929 103.157L91.7839 109.592C91.4281 109.797 91.0259 109.902 90.6237 109.902V109.902Z" fill="#FC974D"/>
<path fill-rule="evenodd" clip-rule="evenodd" d="M111.464 120.254C111.263 120.254 111.058 120.227 110.861 120.177C110.269 120.018 109.762 119.628 109.453 119.094L73.5424 56.894C72.9043 55.7842 73.2833 54.3649 74.3932 53.7268L125.03 24.487C125.564 24.1815 126.198 24.0964 126.794 24.2588C127.385 24.4174 127.896 24.8041 128.201 25.3378L164.112 87.5376C164.754 88.6475 164.371 90.0668 163.261 90.7049L112.624 119.945C112.268 120.15 111.866 120.254 111.464 120.254Z" fill="#FFDC67"/>
<path fill-rule="evenodd" clip-rule="evenodd" d="M70.5994 60.9159C70.3983 60.9159 70.1972 60.8889 70 60.8386C69.4044 60.6762 68.8978 60.2894 68.5885 59.7558L65.0152 53.5644C62.4048 49.0398 63.9594 43.239 68.4802 40.6248L116.642 12.8197C118.073 11.9921 119.705 11.5551 121.356 11.5551C124.744 11.5551 127.896 13.3689 129.578 16.2847L133.155 22.48C133.464 23.0098 133.546 23.644 133.387 24.2395C133.229 24.8351 132.838 25.3417 132.308 25.6472L71.7596 60.6066C71.4038 60.8115 71.0016 60.9159 70.5994 60.9159V60.9159Z" fill="#FC974D"/>
<path fill-rule="evenodd" clip-rule="evenodd" d="M116.298 132.877C112.91 132.877 109.759 131.063 108.076 128.147L104.499 121.956C103.857 120.846 104.24 119.426 105.35 118.785L165.895 83.829C167.005 83.1871 168.424 83.5699 169.066 84.6759L172.639 90.8712C173.9 93.0561 174.236 95.6046 173.579 98.0564C172.921 100.504 171.359 102.546 169.174 103.807L121.012 131.612C119.581 132.44 117.949 132.877 116.298 132.877Z" fill="#FC974D"/>
<path fill-rule="evenodd" clip-rule="evenodd" d="M91.6021 63.2865C90.7977 63.2865 90.0204 62.8727 89.5873 62.1263C88.9492 61.0165 89.3282 59.5972 90.4381 58.9553L120.161 41.7965C121.271 41.1546 122.69 41.5374 123.332 42.6473C123.97 43.7572 123.591 45.1765 122.482 45.8145L92.7584 62.9771C92.3949 63.186 91.9927 63.2865 91.6021 63.2865V63.2865ZM115.594 104.843C114.794 104.843 114.012 104.43 113.583 103.683C112.941 102.573 113.32 101.154 114.43 100.516L144.153 83.3533C145.263 82.7153 146.682 83.0942 147.324 84.2041C147.962 85.314 147.584 86.7333 146.474 87.3713L116.75 104.534C116.387 104.743 115.989 104.843 115.594 104.843ZM108.185 89.1348C106.108 89.1348 104.174 88.021 103.138 86.2267L97.7355 76.8719C96.962 75.53 96.7571 73.9638 97.1593 72.4595C97.5614 70.9551 98.5205 69.7022 99.8663 68.9249L125.459 54.1483C126.341 53.6417 127.343 53.3749 128.36 53.3749C130.436 53.3749 132.37 54.4848 133.403 56.2792L138.809 65.6378C139.582 66.9797 139.787 68.5459 139.385 70.0502C138.983 71.5507 138.02 72.8075 136.678 73.581L111.085 88.3575C110.203 88.8641 109.202 89.1348 108.185 89.1348V89.1348Z" fill="white"/>
<path fill-rule="evenodd" clip-rule="evenodd" d="M184.082 170.62H108.007C106.727 170.62 105.687 169.58 105.687 168.3V159.092C105.687 152.738 110.857 147.568 117.215 147.568H174.878C181.236 147.568 186.406 152.738 186.406 159.092V168.3C186.402 169.58 185.366 170.62 184.082 170.62Z" fill="#FFCC21"/>
<path fill-rule="evenodd" clip-rule="evenodd" d="M195.684 186.445C195.68 186.445 195.68 186.445 195.676 186.445H96.4168C95.6163 186.445 94.87 186.031 94.4446 185.35C94.023 184.67 93.9805 183.819 94.3363 183.1L102.125 167.275C102.515 166.479 103.324 165.98 104.205 165.98H187.887C188.769 165.98 189.577 166.479 189.968 167.275L197.679 182.937C197.884 183.285 198.004 183.691 198.004 184.125C198.004 185.405 196.968 186.445 195.684 186.445Z" fill="#FFDC67"/>
<path fill-rule="evenodd" clip-rule="evenodd" d="M181.828 130.85C180.931 130.85 180.08 130.328 179.697 129.454C179.186 128.278 179.728 126.913 180.903 126.399L189.554 122.644C190.73 122.134 192.095 122.671 192.606 123.847C193.116 125.022 192.578 126.387 191.403 126.898L182.752 130.657C182.45 130.788 182.137 130.85 181.828 130.85V130.85Z" fill="white"/>
<path fill-rule="evenodd" clip-rule="evenodd" d="M192.571 141.114C192.482 141.114 192.393 141.11 192.304 141.098L182.934 140.027C181.657 139.88 180.745 138.731 180.892 137.455C181.035 136.183 182.187 135.274 183.46 135.413L192.834 136.489C194.106 136.632 195.019 137.784 194.872 139.056C194.736 140.24 193.735 141.114 192.571 141.114Z" fill="white"/>
<path fill-rule="evenodd" clip-rule="evenodd" d="M176.042 123.576C175.563 123.576 175.079 123.425 174.666 123.12C173.633 122.354 173.416 120.904 174.182 119.871L179.793 112.292C180.559 111.263 182.009 111.046 183.042 111.808C184.071 112.57 184.287 114.024 183.525 115.053L177.91 122.636C177.454 123.251 176.754 123.576 176.042 123.576Z" fill="white"/>
</g>
<defs>
<clipPath id="clip0_536_1491">
<rect width="198" height="198" fill="white"/>
</clipPath>
</defs>
</svg>
