<svg width="170" height="135" viewBox="0 0 170 135" fill="none" xmlns="http://www.w3.org/2000/svg">
<path d="M170 20.837C170 20.837 134.721 11.2997 110.995 44.2657C105.012 43.3327 99.6481 41.8814 95.3155 40.4301C123.58 24.258 131.007 0 131.007 0H121.826C121.826 0 116.566 20.215 85 36.698C53.4345 20.215 48.1735 0 48.1735 0H38.9927C38.9927 0 46.4199 24.3617 74.6845 40.4301C70.3519 41.7777 64.8847 43.2291 59.0049 44.2657C35.176 11.2997 0 20.837 0 20.837C7.01456 51.5224 34.557 54.7361 51.165 53.6994C51.165 53.6994 36.517 87.4948 52.9187 112.271C51.1651 121.912 57.6638 131.346 67.3604 133.523C70.8677 134.352 79.4296 134.767 85 134.767C90.4672 134.767 99.1323 134.352 102.64 133.523C112.027 131.45 118.422 122.534 117.184 113.308L117.803 112.271C134.102 87.9095 119.97 54.6324 119.66 53.6994C136.268 54.6324 163.192 51.1077 170 20.837ZM158.447 28.0937C150.194 42.7107 134.927 46.1317 120.485 45.3024C136.578 26.124 158.447 28.0937 158.447 28.0937ZM11.6566 28.0937C11.6566 28.0937 33.5255 26.124 49.6177 45.3024C35.176 46.1317 20.0121 42.7107 11.6566 28.0937ZM57.5607 103.77C48.0704 83.8664 57.5607 57.9497 57.5607 57.9497C57.5607 57.9497 75.8192 85.0068 59.9332 101.386C59.3143 102.112 58.3859 102.941 57.5607 103.77ZM84.8969 126.992C63.8532 127.51 59.6238 120.668 60.2427 116.003C60.5522 114.033 61.4806 112.271 62.8216 110.82C72.2087 101.075 73.6529 92.0561 73.6529 92.0561C76.7476 78.9941 67.2573 58.4681 67.2573 58.4681C66.2257 56.0837 65.091 53.9067 63.9563 51.8334C71.7961 50.2784 78.8107 48.1014 85.1031 45.5097C91.2925 48.1014 98.307 50.2784 106.25 51.8334C105.115 53.9067 103.981 56.0837 102.949 58.4681C102.949 58.4681 93.5619 78.9941 96.5534 92.0561C96.5534 92.0561 97.9976 100.971 107.385 110.82C108.726 112.271 109.654 114.033 109.964 116.003C110.583 120.668 105.941 127.51 84.8969 126.992ZM113.265 103.77L113.058 104.392C112.027 103.356 110.995 102.319 110.17 101.49C94.284 85.0068 112.542 58.0534 112.542 58.0534C112.646 57.8461 112.749 57.5351 112.955 57.3278L113.368 58.0534C113.265 58.0534 122.755 83.8664 113.265 103.77Z" fill="white"/>
</svg>
