<svg width="278" height="198" viewBox="0 0 278 198" fill="none" xmlns="http://www.w3.org/2000/svg">
<g filter="url(#filter0_i_786_2281)">
<path d="M83.1394 16.1336C34.7348 44.0537 -45.9643 149.305 33.4219 193.528C70.9738 214.447 96.4265 155.262 149.103 153.76C201.779 152.257 228.986 172.459 259.782 158.379C280.134 149.074 286.729 111.296 259.782 70.6551C220.677 11.6782 149.011 -21.8614 83.1394 16.1336Z" fill="#F1F1FA"/>
</g>
<mask id="mask0_786_2281" style="mask-type:alpha" maskUnits="userSpaceOnUse" x="0" y="0" width="278" height="198">
<path d="M83.1394 16.1336C34.7348 44.0537 -45.9643 149.305 33.4219 193.528C70.9738 214.448 96.4265 155.262 149.103 153.76C201.779 152.257 228.986 172.459 259.782 158.379C280.134 149.074 286.729 111.296 259.782 70.6551C220.677 11.6782 149.011 -21.8614 83.1394 16.1336Z" fill="#FEFEFE"/>
</mask>
<g mask="url(#mask0_786_2281)">
<path d="M240.044 161.438L243.429 162.821L45.091 217.864C-13.44 211.647 -125.316 191.934 -104.572 162.821C-78.6429 126.428 -49.529 104.593 18.7066 104.593C100.827 104.593 111.776 109.063 240.044 161.438Z" fill="#893E3E"/>
<path d="M293.683 115.47C329.331 115.47 358.047 123.372 388.249 161.395L291.702 205.839C227.998 199.09 137.426 206.333 160.003 174.728C188.225 135.223 219.416 115.47 293.683 115.47Z" fill="#893E3E" stroke="#F1F1FA" stroke-width="4.34928"/>
<path d="M59.954 351.528H59.9614L152.72 351.528C152.722 351.528 152.724 351.528 152.727 351.528C155.601 351.541 158.45 350.988 161.11 349.9C163.773 348.811 166.195 347.208 168.237 345.183C170.28 343.158 171.904 340.75 173.015 338.097C174.127 335.444 174.705 332.598 174.716 329.722C174.716 329.721 174.716 329.721 174.716 329.721L175.706 96.0969C175.73 90.2887 173.447 84.7088 169.358 80.5842C165.268 76.4595 159.708 74.1279 153.9 74.102L153.9 74.102L60.7202 73.7071C60.7199 73.7071 60.7196 73.7071 60.7193 73.7071C54.9156 73.6795 49.3384 75.9569 45.2129 80.0391C41.0873 84.1216 38.7512 89.6749 38.7179 95.4788L38.7179 95.4812L37.7273 329.106L37.7273 329.106C37.6784 341.197 47.8633 351.472 59.954 351.528Z" fill="url(#paint0_linear_786_2281)" stroke="#893E3E" stroke-width="3.2"/>
<path d="M132.722 89.9653L132.722 89.9529C132.715 89.1378 133.03 88.3529 133.598 87.7686C134.163 87.188 134.933 86.8522 135.743 86.8332L153.792 86.9173C153.793 86.9173 153.793 86.9173 153.794 86.9173C157.186 86.9408 160.432 88.3058 162.822 90.7141C165.212 93.1225 166.551 96.3787 166.548 99.7715C166.548 99.7719 166.548 99.7724 166.548 99.7728L165.584 327.805L165.584 327.806C165.571 331.211 164.208 334.471 161.793 336.87C159.378 339.27 156.109 340.613 152.705 340.603L59.7107 340.176C56.3134 340.155 53.0631 338.788 50.6712 336.375C48.2797 333.963 46.9412 330.701 46.9486 327.304C46.9486 327.304 46.9486 327.304 46.9486 327.303L47.9133 99.2685L47.9133 99.2658C47.9171 97.5791 48.2531 95.9097 48.9021 94.3529C49.5512 92.7961 50.5004 91.3823 51.6958 90.1924C52.8912 89.0024 54.3092 88.0596 55.869 87.4176C57.4283 86.7759 59.0987 86.4475 60.7848 86.4511C60.7853 86.4511 60.7858 86.4511 60.7863 86.4511L76.5939 86.5224H76.6002H82.9309C83.7431 86.5571 84.5103 86.9063 85.07 87.4967C85.6349 88.0926 85.9432 88.8864 85.9286 89.7073L85.9284 89.7197V89.7322V92.9921C85.8946 94.5458 86.476 96.0502 87.5463 97.1775C88.6209 98.3094 90.1006 98.9689 91.6607 99.0111L91.6765 99.0115L91.6922 99.0116L126.913 99.1735L126.929 99.1735L126.944 99.1733C128.498 99.1464 129.977 98.5057 131.06 97.3911C132.141 96.2787 132.738 94.7846 132.722 93.234L132.722 89.9653Z" fill="#F1F1FA" stroke="#893E3E" stroke-width="2.8"/>
<path d="M122.026 137.097C121.81 136.757 116.629 128.784 107.382 128.784C98.1343 128.784 92.9542 136.757 92.7382 137.097C91.8773 138.45 92.2761 140.244 93.6289 141.105C94.9818 141.966 96.7763 141.567 97.6371 140.214C97.6729 140.158 101.286 134.591 107.382 134.591C113.477 134.591 117.091 140.158 117.127 140.214C117.988 141.567 119.782 141.966 121.135 141.105C122.488 140.244 122.887 138.45 122.026 137.097ZM94.7518 109.622C96.7562 109.622 98.381 111.246 98.381 113.251C98.381 115.255 96.7562 116.88 94.7518 116.88C92.7474 116.88 91.1226 115.255 91.1226 113.251C91.1226 111.246 92.7474 109.622 94.7518 109.622ZM116.527 113.251C116.527 115.255 118.152 116.88 120.157 116.88C122.161 116.88 123.786 115.255 123.786 113.251C123.786 111.246 122.161 109.622 120.157 109.622C118.152 109.622 116.527 111.246 116.527 113.251Z" fill="url(#paint1_linear_786_2281)"/>
<path d="M122.026 137.097C121.81 136.757 116.629 128.784 107.382 128.784C98.1343 128.784 92.9542 136.757 92.7382 137.097C91.8773 138.45 92.2761 140.244 93.6289 141.105C94.9818 141.966 96.7763 141.567 97.6371 140.214C97.6729 140.158 101.286 134.591 107.382 134.591C113.477 134.591 117.091 140.158 117.127 140.214C117.988 141.567 119.782 141.966 121.135 141.105C122.488 140.244 122.887 138.45 122.026 137.097ZM94.7518 109.622C96.7562 109.622 98.381 111.246 98.381 113.251C98.381 115.255 96.7562 116.88 94.7518 116.88C92.7474 116.88 91.1226 115.255 91.1226 113.251C91.1226 111.246 92.7474 109.622 94.7518 109.622ZM116.527 113.251C116.527 115.255 118.152 116.88 120.157 116.88C122.161 116.88 123.786 115.255 123.786 113.251C123.786 111.246 122.161 109.622 120.157 109.622C118.152 109.622 116.527 111.246 116.527 113.251Z" stroke="url(#paint2_linear_786_2281)" stroke-width="2"/>
<path d="M122.026 137.097C121.81 136.757 116.629 128.784 107.382 128.784C98.1343 128.784 92.9542 136.757 92.7382 137.097C91.8773 138.45 92.2761 140.244 93.6289 141.105C94.9818 141.966 96.7763 141.567 97.6371 140.214C97.6729 140.158 101.286 134.591 107.382 134.591C113.477 134.591 117.091 140.158 117.127 140.214C117.988 141.567 119.782 141.966 121.135 141.105C122.488 140.244 122.887 138.45 122.026 137.097ZM94.7518 109.622C96.7562 109.622 98.381 111.246 98.381 113.251C98.381 115.255 96.7562 116.88 94.7518 116.88C92.7474 116.88 91.1226 115.255 91.1226 113.251C91.1226 111.246 92.7474 109.622 94.7518 109.622ZM116.527 113.251C116.527 115.255 118.152 116.88 120.157 116.88C122.161 116.88 123.786 115.255 123.786 113.251C123.786 111.246 122.161 109.622 120.157 109.622C118.152 109.622 116.527 111.246 116.527 113.251Z" stroke="#893E3E" stroke-width="2"/>
<path d="M179.881 67.3466C177.866 69.3613 177.866 72.6294 179.881 74.6442C181.896 76.6586 185.164 76.6586 187.179 74.6442C189.194 72.6294 189.194 69.3613 187.179 67.3466C185.164 65.3318 181.896 65.3318 179.881 67.3466Z" fill="#893E3E"/>
<path d="M183.53 55.0748C179.278 55.0748 175.279 56.7308 172.274 59.7384C171.094 60.9182 171.094 62.8305 172.274 64.0096C173.454 65.1894 175.365 65.1894 176.545 64.0096C178.409 62.1433 180.89 61.1159 183.53 61.1159C186.169 61.1159 188.651 62.1433 190.514 64.0096C191.105 64.5995 191.88 64.8943 192.651 64.8943C193.425 64.8943 194.196 64.5995 194.786 64.0096C195.966 62.8305 195.966 60.9183 194.786 59.7384C191.781 56.7308 187.781 55.0748 183.53 55.0748Z" fill="#893E3E"/>
<path d="M183.53 45.1288C176.621 45.1288 170.125 47.8198 165.24 52.7052C164.061 53.8851 164.061 55.7976 165.24 56.9764C166.42 58.1563 168.333 58.1563 169.511 56.9764C173.255 53.2315 178.234 51.1695 183.53 51.1695C188.823 51.1695 193.803 53.2315 197.547 56.9764C198.136 57.5665 198.911 57.8614 199.682 57.8614C200.457 57.8614 201.228 57.5665 201.818 56.9764C202.997 55.7976 202.997 53.8851 201.818 52.7052C196.933 47.8198 190.44 45.1288 183.53 45.1288Z" fill="#893E3E"/>
<path d="M208.868 45.6576C202.101 38.8882 193.103 35.1609 183.53 35.1609C173.957 35.1609 164.959 38.8882 158.192 45.6576C157.013 46.8375 157.013 48.75 158.192 49.9289C158.783 50.5188 159.556 50.8135 160.328 50.8135C161.101 50.8135 161.876 50.5188 162.463 49.9289C168.09 44.3007 175.572 41.2016 183.53 41.2016C191.488 41.2016 198.969 44.3007 204.595 49.9289C205.774 51.1087 207.686 51.1077 208.866 49.9299C210.045 48.75 210.045 46.8375 208.868 45.6576Z" fill="#893E3E"/>
<path d="M183.347 61.1814C182.634 61.1814 182.016 60.9438 181.493 60.4684C181.018 59.993 180.733 59.3038 180.638 58.4006L178 30.6639L177.928 29.9508C177.928 28.4773 178.427 27.3126 179.426 26.457C180.471 25.5538 181.779 25.1023 183.347 25.1023C184.916 25.1023 186.199 25.5538 187.198 26.457C188.243 27.3126 188.766 28.4773 188.766 29.9508L188.695 30.7352L186.057 58.4006C185.962 59.3038 185.653 59.993 185.13 60.4684C184.654 60.9438 184.06 61.1814 183.347 61.1814ZM183.347 76.155C181.826 76.155 180.566 75.6559 179.568 74.6576C178.57 73.6119 178.071 72.3284 178.071 70.8073C178.071 69.2862 178.57 68.0265 179.568 67.0282C180.566 65.9825 181.826 65.4596 183.347 65.4596C184.868 65.4596 186.128 65.9825 187.126 67.0282C188.125 68.0265 188.624 69.2862 188.624 70.8073C188.624 72.3284 188.125 73.6119 187.126 74.6576C186.128 75.6559 184.868 76.155 183.347 76.155Z" fill="#4A4949"/>
</g>
<defs>
<filter id="filter0_i_786_2281" x="0" y="0" width="277.605" height="204.139" filterUnits="userSpaceOnUse" color-interpolation-filters="sRGB">
<feFlood flood-opacity="0" result="BackgroundImageFix"/>
<feBlend mode="normal" in="SourceGraphic" in2="BackgroundImageFix" result="shape"/>
<feColorMatrix in="SourceAlpha" type="matrix" values="0 0 0 0 0 0 0 0 0 0 0 0 0 0 0 0 0 0 127 0" result="hardAlpha"/>
<feOffset dy="6.1386"/>
<feGaussianBlur stdDeviation="8.1848"/>
<feComposite in2="hardAlpha" operator="arithmetic" k2="-1" k3="1"/>
<feColorMatrix type="matrix" values="0 0 0 0 0 0 0 0 0 0 0 0 0 0 0 0 0 0 0.25 0"/>
<feBlend mode="normal" in2="shape" result="effect1_innerShadow_786_2281"/>
</filter>
<linearGradient id="paint0_linear_786_2281" x1="95.95" y1="78.7672" x2="201.117" y2="308.117" gradientUnits="userSpaceOnUse">
<stop stop-color="#893E3E"/>
<stop offset="1" stop-color="#FFCFCF"/>
</linearGradient>
<linearGradient id="paint1_linear_786_2281" x1="104.845" y1="110.024" x2="111.62" y2="140.814" gradientUnits="userSpaceOnUse">
<stop stop-color="#893E3E"/>
<stop offset="1" stop-color="#FFCFCF"/>
</linearGradient>
<linearGradient id="paint2_linear_786_2281" x1="104.845" y1="110.024" x2="111.62" y2="140.814" gradientUnits="userSpaceOnUse">
<stop stop-color="#893E3E"/>
<stop offset="1" stop-color="#FFCFCF"/>
</linearGradient>
</defs>
</svg>
