<svg width="198" height="198" viewBox="0 0 198 198" fill="none" xmlns="http://www.w3.org/2000/svg">
<path d="M80.4375 105.188C71.0017 110.849 63.1928 118.857 57.7712 128.433C52.3496 138.008 49.5 148.825 49.5 159.829V173.25H148.5V159.829C148.5 148.825 145.65 138.008 140.229 128.433C134.807 118.857 126.998 110.849 117.562 105.188V92.8125C126.998 87.1511 134.807 79.1427 140.229 69.5671C145.65 59.9915 148.5 49.1752 148.5 38.1713V24.75H49.5V38.1713C49.5 49.1752 52.3496 59.9915 57.7712 69.5671C63.1928 79.1427 71.0017 87.1511 80.4375 92.8125V105.188Z" fill="#F3F8FF"/>
<path d="M92.8125 105.188C83.3767 110.849 75.5678 118.857 70.1462 128.433C64.7246 138.008 61.875 148.825 61.875 159.829V173.25H148.5V159.829C148.5 148.825 145.65 138.008 140.229 128.433C134.807 118.857 126.998 110.849 117.562 105.188V92.8125C126.998 87.1511 134.807 79.1427 140.229 69.5671C145.65 59.9915 148.5 49.1752 148.5 38.1713V24.75H61.875V38.1713C61.875 49.1752 64.7246 59.9915 70.1462 69.5671C75.5678 79.1427 83.3767 87.1511 92.8125 92.8125V105.188Z" fill="white"/>
<path d="M37.125 6.1875H160.875V30.9375H37.125V6.1875Z" fill="#FFCF77"/>
<path d="M49.5 18.5625H160.875V30.9375H49.5V18.5625Z" fill="#FFB560"/>
<path d="M37.125 167.062H160.875V191.812H37.125V167.062Z" fill="#FFCF77"/>
<path d="M49.5 179.438H160.875V191.812H49.5V179.438Z" fill="#FFB560"/>
<path d="M50.7084 49.5C52.2853 58.4231 55.7543 66.9051 60.8822 74.3759C66.01 81.8467 72.6779 88.1331 80.4375 92.8125L99 102.094L117.563 92.8125C125.322 88.1331 131.99 81.8467 137.118 74.3759C142.246 66.9051 145.715 58.4231 147.292 49.5H50.7084Z" fill="#FFF082"/>
<path d="M99 102.094L117.562 92.8125C125.322 88.1331 131.99 81.8467 137.118 74.3759C142.246 66.9051 145.715 58.4231 147.292 49.5H63.0178C64.6116 58.4255 68.0944 66.9073 73.2329 74.3772C78.3715 81.8471 85.0471 88.1325 92.8125 92.8125V99L99 102.094Z" fill="#FFDE50"/>
<path d="M92.8125 123.75H105.188V136.125H92.8125V123.75Z" fill="#FFDE50"/>
</svg>
