<svg width="198" height="198" viewBox="0 0 198 198" fill="none" xmlns="http://www.w3.org/2000/svg">
<g clip-path="url(#clip0_1_943)">
<path d="M92.9558 142.203H106.129V161.181H92.9558V142.203Z" fill="white"/>
<path d="M158.821 92.4135H40.2636C38.4447 92.4135 36.9705 93.8878 36.9705 95.7067V118.759C36.9705 129.672 45.8171 138.519 56.7301 138.519H142.355C153.268 138.519 162.115 129.672 162.115 118.759V95.7067C162.114 93.8878 160.64 92.4135 158.821 92.4135ZM148.941 118.76C148.941 122.398 145.992 125.346 142.355 125.346H56.7301C53.0923 125.346 50.1434 122.398 50.1434 118.76V107.233C50.1434 106.324 50.8805 105.586 51.7902 105.586H147.295C148.204 105.586 148.942 106.324 148.942 107.233V118.76H148.941Z" fill="white"/>
<path d="M158.821 92.4135H149.677C151.496 92.4135 152.97 93.8878 152.97 95.7067V118.759C152.97 129.672 144.124 138.519 133.211 138.519H142.355C153.268 138.519 162.114 129.672 162.114 118.759V95.7067C162.114 93.8878 160.64 92.4135 158.821 92.4135Z" fill="white"/>
<path d="M132.475 80.3139V118.76C132.475 133.31 120.679 145.106 106.129 145.106H92.9558C78.405 145.106 66.6095 133.31 66.6095 118.76V80.3139H132.475Z" fill="#FFDC67"/>
<path d="M123.331 80.3139V118.76C123.331 133.31 111.535 145.106 96.9845 145.106H106.129C120.679 145.106 132.475 133.31 132.475 118.76V80.3139H123.331Z" fill="#FFB957"/>
<path d="M184.965 152.665C184.459 152.665 183.947 152.536 183.477 152.265L171.665 145.444C170.239 144.621 169.75 142.797 170.573 141.371C171.396 139.945 173.219 139.456 174.646 140.28L186.459 147.1C187.885 147.923 188.374 149.747 187.55 151.173C186.998 152.13 185.996 152.665 184.965 152.665Z" fill="#B6D7A5"/>
<path d="M195.018 115.155H181.379C179.732 115.155 178.397 113.82 178.397 112.173C178.397 110.526 179.732 109.191 181.379 109.191H195.018C196.665 109.191 198 110.526 198 112.173C198 113.82 196.665 115.155 195.018 115.155Z" fill="#B6D7A5"/>
<path d="M173.158 84.4665C172.128 84.4665 171.125 83.9316 170.573 82.9749C169.75 81.5485 170.239 79.7249 171.665 78.9018L183.477 72.082C184.903 71.2584 186.727 71.747 187.55 73.1734C188.374 74.5998 187.885 76.4233 186.459 77.2465L174.646 84.0663C174.177 84.3376 173.664 84.4665 173.158 84.4665Z" fill="#B6D7A5"/>
<path d="M24.8419 84.4665C24.3359 84.4665 23.8234 84.3376 23.3537 84.0663L11.5412 77.2465C10.1148 76.4233 9.62622 74.5994 10.4498 73.1734C11.273 71.7474 13.0969 71.2584 14.5229 72.082L26.3354 78.9018C27.7618 79.725 28.2504 81.5489 27.4268 82.9749C26.8746 83.9312 25.8723 84.4665 24.8419 84.4665Z" fill="#B6D7A5"/>
<path d="M16.6212 115.155H2.98169C1.33493 115.155 0 113.82 0 112.173C0 110.526 1.33493 109.191 2.98169 109.191H16.6212C18.268 109.191 19.6029 110.526 19.6029 112.173C19.6029 113.82 18.268 115.155 16.6212 115.155Z" fill="#B6D7A5"/>
<path d="M13.0351 152.665C12.0047 152.665 11.0024 152.13 10.4502 151.173C9.62659 149.747 10.1152 147.923 11.5416 147.1L23.3541 140.28C24.7801 139.457 26.604 139.945 27.4272 141.372C28.2508 142.798 27.7622 144.622 26.3358 145.445L14.5233 152.265C14.0536 152.536 13.5407 152.665 13.0351 152.665Z" fill="#B6D7A5"/>
<path d="M125.889 187.66H73.1962V161.366C73.1962 159.661 74.5786 158.279 76.2836 158.279H122.801C124.506 158.279 125.888 159.661 125.888 161.366V187.66H125.889Z" fill="#365E7D"/>
<path d="M122.708 158.279H113.564C115.32 158.279 116.744 159.703 116.744 161.459V187.66H125.888V161.459C125.888 159.703 124.465 158.279 122.708 158.279Z" fill="#2B4D66"/>
<path d="M129.387 197.798H69.6973C67.9923 197.798 66.6099 196.416 66.6099 194.711V187.712C66.6099 186.007 67.9923 184.625 69.6973 184.625H129.388C131.093 184.625 132.475 186.007 132.475 187.712V194.71C132.475 196.416 131.093 197.798 129.387 197.798Z" fill="#FFDC67"/>
<path d="M129.294 184.625H120.15C121.907 184.625 123.331 186.049 123.331 187.805V194.617C123.331 196.374 121.907 197.798 120.15 197.798H129.294C131.051 197.798 132.475 196.374 132.475 194.617V187.805C132.475 186.049 131.051 184.625 129.294 184.625Z" fill="#FFB957"/>
<path d="M66.6098 85.8269C62.9721 85.8269 60.0232 82.878 60.0232 79.2402C60.0232 75.6025 62.9721 72.6536 66.6098 72.6536H132.475C136.113 72.6536 139.062 75.6025 139.062 79.2402C139.062 82.878 136.113 85.8269 132.475 85.8269H66.6098Z" fill="white"/>
<path d="M132.475 72.6539H123.331C126.968 72.6539 129.917 75.6028 129.917 79.2406C129.917 82.8784 126.968 85.8273 123.331 85.8273H132.475C136.113 85.8273 139.062 82.8784 139.062 79.2406C139.062 75.6028 136.113 72.6539 132.475 72.6539Z" fill="white"/>
<path d="M109.422 108.88C109.422 114.336 104.999 118.76 99.5424 118.76C94.0857 118.76 89.6626 114.336 89.6626 108.88V59.481L99.5424 57.387L109.422 59.481V108.88Z" fill="#FC974D"/>
<path d="M100.278 57.5429V108.88C100.278 112.686 98.1242 115.988 94.9703 117.638C96.3377 118.353 97.8922 118.76 99.5424 118.76C104.999 118.76 109.422 114.336 109.422 108.88V59.481L100.278 57.5429Z" fill="#F47F31"/>
<path d="M89.6626 43.5379H109.422V59.4806H89.6626V43.5379Z" fill="#FFDC67"/>
<path d="M100.278 43.5379H109.422V59.4806H100.278V43.5379Z" fill="#FFB957"/>
<path d="M135.768 46.3077H142.58C146.093 46.3077 148.941 43.4595 148.941 39.9464V13.1498C148.941 9.63667 146.093 6.78851 142.58 6.78851H135.768H63.3164H56.5047C52.9916 6.78851 50.1434 9.63667 50.1434 13.1498V39.9464C50.1434 43.4595 52.9916 46.3077 56.5047 46.3077H63.3164H135.768Z" fill="#FC974D"/>
<path d="M142.58 6.78851H135.768H133.436C136.949 6.78851 139.797 9.63667 139.797 13.1498V39.9464C139.797 43.4595 136.949 46.3077 133.436 46.3077H135.768H142.58C146.093 46.3077 148.941 43.4595 148.941 39.9464V13.1498C148.941 9.63667 146.093 6.78851 142.58 6.78851Z" fill="#F47F31"/>
<path d="M63.3164 46.3077C63.3164 49.9455 66.2653 52.8944 69.9031 52.8944C73.5408 52.8944 76.4897 49.9455 76.4897 46.3077V6.7885C76.4897 3.15073 73.5408 0.201843 69.9031 0.201843C66.2653 0.201843 63.3164 3.15073 63.3164 6.7885V46.3077Z" fill="#FFDC67"/>
<path d="M122.595 46.3077C122.595 49.9455 125.544 52.8944 129.182 52.8944C132.82 52.8944 135.769 49.9455 135.769 46.3077V6.7885C135.769 3.15073 132.82 0.201843 129.182 0.201843C125.544 0.201843 122.595 3.15073 122.595 6.7885V46.3077Z" fill="#FFDC67"/>
</g>
<defs>
<clipPath id="clip0_1_943">
<rect width="198" height="198" fill="white"/>
</clipPath>
</defs>
</svg>
