<svg width="22" height="22" viewBox="0 0 22 22" fill="none" xmlns="http://www.w3.org/2000/svg">
<path d="M7.09004 18.1324H1.93363C0.867451 18.1324 0 18.9999 0 20.0661V21.3552C0 21.7112 0.288577 21.9997 0.64453 21.9997H8.37914C8.7351 21.9997 9.02367 21.7111 9.02367 21.3552V20.0661C9.02372 18.9999 8.15627 18.1324 7.09004 18.1324ZM7.73461 20.7107H1.2891V20.0661C1.2891 19.7107 1.57824 19.4216 1.93363 19.4216H7.09004C7.44543 19.4216 7.73457 19.7107 7.73457 20.0661V20.7107H7.73461Z" fill="#8F9098"/>
<path d="M20.8951 16.7441L13.3046 10.5689L11.9607 9.22494L12.9506 8.23499C13.6698 8.57753 14.5566 8.45207 15.1511 7.85759C15.905 7.10367 15.905 5.87695 15.1511 5.12303L10.5933 0.56543C9.83936 -0.188498 8.61264 -0.188455 7.85867 0.56543C7.26459 1.15956 7.13903 2.04725 7.48137 2.7659L2.76689 7.48033C2.04828 7.138 1.16059 7.26351 0.566422 7.85768C-0.187505 8.61161 -0.187505 9.83832 0.566422 10.5923L5.12411 15.15C5.87975 15.9056 7.10294 15.9058 7.85872 15.15C8.45284 14.5558 8.57844 13.6682 8.23607 12.9496L9.22602 11.9596L10.5699 13.3034L16.7451 20.8939C17.8461 22.2674 19.8946 22.3765 21.1361 21.135C22.3781 19.8929 22.2665 17.8435 20.8951 16.7441ZM8.77021 1.47697C9.02158 1.22564 9.43047 1.22569 9.68175 1.47697L14.2394 6.03461C14.4907 6.28589 14.4907 6.69482 14.2393 6.94619C13.9875 7.19803 13.5798 7.19807 13.3278 6.94619L8.77021 2.38855C8.51889 2.13722 8.51889 1.72829 8.77021 1.47697ZM6.94714 14.2384C6.69525 14.4902 6.28752 14.4903 6.0356 14.2384L1.478 9.6808C1.22668 9.42947 1.22668 9.02058 1.47796 8.76922C1.7292 8.51798 2.138 8.51785 2.38941 8.76909C2.38945 8.76913 2.3895 8.76917 2.3895 8.76922L6.94714 13.3269C7.19842 13.5782 7.19842 13.9871 6.94714 14.2384ZM7.40295 11.9596C6.96742 11.5241 4.19027 8.74696 3.7568 8.31349L8.31448 3.75585C8.7556 4.19697 11.5166 6.95792 11.9606 7.402C10.2982 9.06437 8.46578 10.8968 7.40295 11.9596ZM10.1375 11.0481L11.0491 10.1365L11.9606 11.0481L11.0491 11.9596L10.1375 11.0481ZM20.2245 20.2235C19.5299 20.9182 18.3759 20.8689 17.7499 20.0865C17.7489 20.0851 17.7477 20.0838 17.7466 20.0824L11.9162 12.9156L12.9166 11.9151L20.0834 17.7456C20.0847 17.7467 20.0861 17.7478 20.0875 17.7489C20.8563 18.3641 20.9316 19.5165 20.2245 20.2235Z" fill="#8F9098"/>
</svg>
