<svg width="22" height="20" viewBox="0 0 22 20" fill="none" xmlns="http://www.w3.org/2000/svg">
<path d="M21.8104 6.24722L17.0411 1.47785C16.9557 1.39243 16.848 1.33275 16.7303 1.30555L11.1445 0.0165317C11.0491 -0.00551056 10.9501 -0.00551056 10.8547 0.0165317L5.26893 1.30555C5.15124 1.33275 5.04353 1.39239 4.95815 1.47785L0.188777 6.24722C-0.0629256 6.49888 -0.0629256 6.90699 0.188777 7.15869C0.440479 7.41039 0.84854 7.41039 1.10024 7.15869L1.76164 6.49729V18.7768C1.76164 19.1327 2.05021 19.4213 2.40615 19.4213H19.5931C19.949 19.4213 20.2376 19.1327 20.2376 18.7768V6.49729L20.899 7.15869C21.0249 7.28454 21.1898 7.34749 21.3547 7.34749C21.9238 7.34749 22.2177 6.65434 21.8104 6.24722ZM10.0881 14.9097L7.77706 17.2208V12.5987L10.0881 14.9097ZM10.9996 15.8212L13.3107 18.1323H8.68853L10.9996 15.8212ZM14.2222 17.2208L11.9111 14.9097L14.2222 12.5987V17.2208ZM10.9996 13.9983L8.68853 11.6872H13.3107L10.9996 13.9983ZM18.9486 18.1323H15.5112V11.0427C15.5112 10.6867 15.2226 10.3982 14.8667 10.3982H7.13255C6.77661 10.3982 6.48804 10.6867 6.48804 11.0427V18.1323H3.05066V5.20827L5.73891 2.52007L10.9996 1.30602L16.2604 2.52002L18.9486 5.20827V18.1323Z" fill="#8F9098"/>
</svg>
