<svg width="20" height="20" viewBox="0 0 20 20" fill="none" xmlns="http://www.w3.org/2000/svg">
<path d="M7.39407 18.0404V15.2293C7.39406 14.5142 7.97698 13.9332 8.69922 13.9284H11.3448C12.0705 13.9284 12.6588 14.5108 12.6588 15.2293V15.2293V18.0492C12.6586 18.6562 13.148 19.1524 13.7611 19.1666H15.5248C17.283 19.1666 18.7083 17.7556 18.7083 16.015V16.015V8.018C18.6989 7.33324 18.3741 6.69022 17.8264 6.27193L11.7945 1.46151C10.7378 0.623915 9.23565 0.623915 8.17893 1.46151L2.17348 6.28066C1.6237 6.69725 1.2984 7.34134 1.29163 8.02673V16.015C1.29163 17.7556 2.71693 19.1666 4.47513 19.1666H6.23884C6.86712 19.1666 7.37644 18.6624 7.37644 18.0404V18.0404" stroke="#3E8954" stroke-width="1.5" stroke-linecap="round" stroke-linejoin="round"/>
</svg>
