<svg width="20" height="20" viewBox="0 0 20 20" fill="none" xmlns="http://www.w3.org/2000/svg">
<path fill-rule="evenodd" clip-rule="evenodd" d="M2.91669 8.59812C2.91669 4.7649 6.11992 1.66666 9.99456 1.66666C13.8801 1.66666 17.0834 4.7649 17.0834 8.59812C17.0834 10.5297 16.3809 12.323 15.2246 13.843C13.949 15.5196 12.3768 16.9804 10.6071 18.127C10.2021 18.392 9.83658 18.412 9.39206 18.127C7.6123 16.9804 6.04009 15.5196 4.77544 13.843C3.61834 12.323 2.91669 10.5297 2.91669 8.59812ZM7.66188 8.81395C7.66188 10.0981 8.70974 11.108 9.99456 11.108C11.2802 11.108 12.3382 10.0981 12.3382 8.81395C12.3382 7.53982 11.2802 6.48068 9.99456 6.48068C8.70974 6.48068 7.66188 7.53982 7.66188 8.81395Z" fill="#8F8D8D"/>
</svg>
