<svg width="20" height="20" viewBox="0 0 20 20" fill="none" xmlns="http://www.w3.org/2000/svg">
<g opacity="0.7" clip-path="url(#clip0_1_1344)">
<path d="M10 0C4.48578 0 0 4.48578 0 10C0 15.5142 4.48578 20 10 20C15.5142 20 20 15.5142 20 10C20 4.48578 15.5142 0 10 0Z" fill="#F44336"/>
<path d="M13.6826 12.5041C14.0083 12.8301 14.0083 13.3566 13.6826 13.6826C13.5201 13.8451 13.3067 13.9267 13.0933 13.9267C12.88 13.9267 12.6666 13.8451 12.5041 13.6826L10 11.1783L7.49589 13.6826C7.33338 13.8451 7.12006 13.9267 6.90675 13.9267C6.69328 13.9267 6.47996 13.8451 6.31745 13.6826C5.99168 13.3566 5.99168 12.8301 6.31745 12.5041L8.82172 10L6.31745 7.49589C5.99168 7.16996 5.99168 6.64338 6.31745 6.31745C6.64338 5.99168 7.16996 5.99168 7.49589 6.31745L10 8.82172L12.5041 6.31745C12.8301 5.99168 13.3566 5.99168 13.6826 6.31745C14.0083 6.64338 14.0083 7.16996 13.6826 7.49589L11.1783 10L13.6826 12.5041Z" fill="#FAFAFA"/>
</g>
<defs>
<clipPath id="clip0_1_1344">
<rect width="20" height="20" fill="white"/>
</clipPath>
</defs>
</svg>
