<svg width="20" height="20" viewBox="0 0 20 20" fill="none" xmlns="http://www.w3.org/2000/svg">
<g clip-path="url(#clip0_1_1061)">
<path d="M7.50513 0V1.66838H9.17351V2.50255C9.75742 2.41915 10.2579 2.41915 10.8419 2.50255V1.66838H12.5103V0H7.50513Z" fill="#A94848"/>
<path d="M15.6801 5.50562L16.264 4.9217L16.9314 5.58906L18.0993 4.42119L15.5967 1.91864L14.4289 3.08651L15.0962 3.75383L14.3454 4.5046C10.3414 2.08545 5.16941 3.33673 2.83371 7.34081C0.498006 11.3449 1.74924 16.35 5.66992 18.7691C9.5906 21.1883 14.7625 19.937 17.0983 15.9329C19.1837 12.5128 18.5998 8.17502 15.6801 5.50562ZM10.0077 17.4345C6.75435 17.4345 4.16839 14.8485 4.16839 11.5952C4.16839 8.34187 6.75435 5.75587 10.0077 5.75587V11.5951H15.8469C15.847 14.8485 13.261 17.4345 10.0077 17.4345Z" fill="#A94848"/>
</g>
<defs>
<clipPath id="clip0_1_1061">
<rect width="20" height="20" fill="white"/>
</clipPath>
</defs>
</svg>
